<svg id="Layer_1" data-name="Layer 1" xmlns="http://www.w3.org/2000/svg" viewBox="0 0 408.4 383.62"><defs><style>.cls-1{fill:#e9cd88;}</style></defs><g id="Layer_2" data-name="Layer 2"><g id="Layer_1-2" data-name="Layer 1-2"><path class="cls-1" d="M227.48,179.46Z" transform="translate(-0.5 -0.5)"/><polygon class="cls-1" points="227.26 179.37 226.63 178.59 226.73 178.69 226.64 178.59 227.31 179.33 227.27 179.36 227.27 179.36 227.26 179.37"/><polygon class="cls-1" points="366.18 97.46 365.46 96.13 361.32 98.38 364.96 105.09 369.11 102.84 368.36 101.47 377.9 96.28 367.03 108.9 368.44 111.48 385.09 109.2 375.42 114.45 374.67 113.07 370.53 115.33 375.44 124.36 379.58 122.11 378.83 120.71 387.85 115.81 388.58 117.16 392.73 114.91 387.08 104.54 378.98 105.56 384.28 99.37 378.6 88.94 374.46 91.19 375.2 92.56 366.18 97.46"/><path class="cls-1" d="M375.74,125.54l-5.39-9.91,5-2.73.75,1.38,6.83-3.71-14.28,2-1.74-3.19,9.31-10.8-6.7,3.64.74,1.37-5,2.73-4.12-7.59,5-2.73.72,1.33L375,92.86l-.74-1.37,5-2.73,6.08,11.18-4.67,5.46,7.15-.9,6,11.11-5,2.73-.73-1.35L380,121.41l.76,1.4Zm-4-9.51,4.43,8.15,3.27-1.77-.76-1.4,9.9-5.38.73,1.36,3.27-1.78-5.24-9.63-9,1.13,5.91-6.9-5.27-9.7-3.26,1.78.74,1.37-9.9,5.38-.72-1.33-3.26,1.77,3.16,5.83,3.27-1.77-.75-1.37L380.57,95l-12.43,14.43,1.07,2,19-2.61-12.51,6.8-.75-1.38Z" transform="translate(-0.5 -0.5)"/><polygon class="cls-1" points="385.92 141.34 385.44 139.59 380.89 140.82 383.82 151.66 388.38 150.43 387.91 148.69 397.81 146.01 398.29 147.74 402.84 146.51 399.9 135.67 395.35 136.91 395.83 138.65 385.92 141.34"/><path class="cls-1" d="M384,152.77,380.78,141l5.51-1.5.48,1.75,8.94-2.42-.47-1.75,5.52-1.49,3.19,11.8-5.52,1.5-.47-1.74-9,2.39.47,1.74Zm-2-11.1,2.68,9.87,3.58-1-.47-1.73,10.88-2.94.47,1.73,3.58-1-2.67-9.87-3.58,1,.47,1.75-10.87,2.94-.48-1.75Z" transform="translate(-0.5 -0.5)"/><path class="cls-1" d="M397.44,169a10.23,10.23,0,0,0-7,3.15c-1.86,1.92-2.69,4.77-2.47,8.54a9.65,9.65,0,0,0,2.4,6.38,9.08,9.08,0,0,0,5.33,2.69l1.5-5.21c-2.9-.33-4.41-1.47-4.52-3.4-.13-2.2,1.65-3.41,5.32-3.63s5.56.75,5.69,2.88a3.09,3.09,0,0,1-.65,2.11,4.18,4.18,0,0,1-2,1.41l.28,4.9,7.18-.41-.27-4.73-1.32.08a9.81,9.81,0,0,0-2-12.51A10.54,10.54,0,0,0,397.44,169Z" transform="translate(-0.5 -0.5)"/><path class="cls-1" d="M396,190.26l-.43-.06a9.55,9.55,0,0,1-5.62-2.83,10.19,10.19,0,0,1-2.54-6.7c-.22-3.9.66-6.9,2.61-8.92a10.7,10.7,0,0,1,7.36-3.3h0a11,11,0,0,1,7.74,2.36,9.43,9.43,0,0,1,3.58,7.13,10,10,0,0,1-1,5.22h.87l.33,5.72-8.18.47-.34-5.78.36-.12a3.81,3.81,0,0,0,1.81-1.25,2.57,2.57,0,0,0,.55-1.77c0-.67-.16-2.7-5.16-2.41s-4.89,2.41-4.85,3.1c.1,1.67,1.43,2.63,4.08,2.93l.59.07Zm1.43-20.81a9.77,9.77,0,0,0-6.69,3c-1.75,1.81-2.54,4.56-2.33,8.17a9.26,9.26,0,0,0,2.26,6.07,8.6,8.6,0,0,0,4.62,2.46l1.21-4.22c-2.79-.46-4.26-1.73-4.38-3.79C392,178.6,394,177.21,398,177s6.07.89,6.22,3.34a3.64,3.64,0,0,1-.75,2.44,4.57,4.57,0,0,1-1.92,1.44l.23,4.05,6.18-.36-.21-3.73-1.84.11.58-.84a8.52,8.52,0,0,0,1.3-5.43,8.35,8.35,0,0,0-3.2-6.4,10.13,10.13,0,0,0-7.07-2.15Z" transform="translate(-0.5 -0.5)"/><polygon class="cls-1" points="401.75 211.42 391.66 209.51 391.94 208.05 387.3 207.18 385.38 217.37 390.01 218.24 390.25 217 393.42 217.6 392.57 222.08 389.4 221.48 389.64 220.23 385 219.35 383.08 229.56 387.72 230.43 387.99 228.97 398.08 230.87 397.8 232.33 402.44 233.21 404.36 223 399.73 222.13 399.49 223.38 396.54 222.83 397.39 218.35 400.34 218.9 400.1 220.14 404.74 221.01 406.66 210.8 402.03 209.93 401.75 211.42"/><path class="cls-1" d="M403.34,234.29l-5.62-1.06.28-1.46-9.11-1.72-.28,1.46L383,230.45l2.11-11.18,5.61,1.06-.23,1.25,2.19.42.66-3.5-2.19-.42-.24,1.24-5.61-1.06,2.1-11.16,5.62,1.05-.28,1.47,9.11,1.71.28-1.49,5.62,1.06-2.12,11.2L400,221l.23-1.24-2-.37-.66,3.5,2,.37.24-1.25,5.62,1.06Zm-4.45-1.86,3.65.69,1.74-9.22-3.65-.68-.24,1.25-3.93-.74,1-5.47,3.93.74-.23,1.24,3.65.69,1.74-9.23L402.9,211l-.28,1.49-11.07-2.09.27-1.46-3.65-.69-1.74,9.21,3.66.69.23-1.24,4.15.78-1,5.46-4.15-.78.24-1.25-3.66-.69-1.73,9.22,3.65.68.27-1.46L399.16,231Z" transform="translate(-0.5 -0.5)"/><polygon class="cls-1" points="385.96 259.63 383.38 257.24 382.51 259.2 385.96 259.63"/><path class="cls-1" d="M390.91,256.08l-.73,1.64-8.62-8.31.55-1.23-3.39-1.52-2.78,6.21,3,1.35.75-1.66,2.68,2.53L380,260.36l-3.6-.46.77-1.74-3-1.36-3.79,8.47,3.39,1.52.53-1.18,12,.83-.74,1.65,3.39,1.52,5.38-12Zm-9.37,4.45,2-4.47,5.86,5.45Z" transform="translate(-0.5 -0.5)"/><path class="cls-1" d="M390.41,254.76l-.56,1.25-7.1-6.83.68-1.51-5.22-2.33-3.6,8,4.86,2.18.58-1.29,1.13,1.07-1.76,3.94-1.53-.19.63-1.42-4.85-2.18-4.61,10.3,5.21,2.34.66-1.46,9.84.68-.56,1.25,5.22,2.34,6.19-13.84Zm-1.23,15.51-4.31-1.93.65-1.45-10.91-.75-.59,1.31-4.3-1.92,4.2-9.39,3.94,1.77-.7,1.58,2.56.32,2.07-4.6-1.91-1.8-.66,1.48-4-1.77,3.19-7.12,4.31,1.93-.61,1.37,7.85,7.57.65-1.45,4.3,1.93Z" transform="translate(-0.5 -0.5)"/><path class="cls-1" d="M387.93,260.82l-4.22-3.92-1.44,3.22Zm-4.05-3.08,2.58,2.39-3.45-.42Z" transform="translate(-0.5 -0.5)"/><path class="cls-1" d="M381.54,260.53l7.86,1-5.86-5.45Zm6.39.29-5.66-.7,1.44-3.22Z" transform="translate(-0.5 -0.5)"/><path class="cls-1" d="M390.66,255.42l-.65,1.45-7.85-7.57.61-1.37L378.46,246l-3.19,7.12,4,1.77.66-1.48,1.91,1.8-2.07,4.6-2.56-.32.7-1.58L374,256.14l-4.2,9.39,4.3,1.92.59-1.31,10.91.75-.65,1.45,4.31,1.93L395,257.35Zm-1.74,14.19-3.39-1.52.74-1.65-12-.83-.53,1.18-3.39-1.52,3.79-8.47,3,1.36-.77,1.74,3.6.46,2.36-5.27-2.68-2.53-.75,1.66-3-1.35,2.78-6.21,3.39,1.52-.55,1.23,8.62,8.31.73-1.64,3.39,1.52Z" transform="translate(-0.5 -0.5)"/><polygon class="cls-1" points="371.75 289.61 363.49 283.52 364.4 282.29 360.6 279.49 349.45 294.62 354.53 298.36 357.59 294.2 356.32 293.25 358.97 289.65 361.57 291.57 359.26 294.7 362.49 297.08 364.8 293.95 367.24 295.74 364.58 299.35 363.3 298.4 360.24 302.56 365.31 306.3 376.48 291.15 372.68 288.36 371.75 289.61"/><path class="cls-1" d="M365.92,307.5,360,303.17l3.66-5,1.27.94,2.07-2.8-1.64-1.2-2.31,3.13-4-3,2.31-3.14-1.79-1.32-2.06,2.8,1.27.94-3.66,5-5.88-4.34L361,279.29l4.6,3.39-.91,1.23,7.46,5.5.92-1.25,4.6,3.39Zm-4.48-4.5,4.27,3.14,10.57-14.34-3-2.2-.92,1.25-9.07-6.68.91-1.23-3-2.21L350.65,295l4.27,3.15,2.47-3.36-1.27-.94,3.25-4.41,3.4,2.51-2.31,3.14,2.42,1.78,2.31-3.13,3.24,2.39-3.24,4.4-1.28-.94Z" transform="translate(-0.5 -0.5)"/><polygon class="cls-1" points="346.14 320.19 339.25 312.58 340.56 311.39 337.4 307.9 323.5 320.48 328.78 326.31 332.26 323.16 330.14 320.82 333.6 317.69 340.49 325.3 339.1 326.56 342.27 330.06 350.61 322.5 347.45 319 346.14 320.19"/><path class="cls-1" d="M342.73,331.26,338.9,327l1.38-1.25-6.22-6.87-2.71,2.45,2.12,2.35-4.23,3.82-5.95-6.58,14.64-13.25,3.84,4.24-1.32,1.19,6.22,6.87L348,318.8l3.84,4.24Zm-2.42-4.17,2.49,2.76,7.61-6.88-2.5-2.76-1.31,1.19-7.6-8.35,1.31-1.19-2.49-2.76L324.7,321l4.61,5.1,2.75-2.49-2.12-2.34,4.19-3.79,7.56,8.35Z" transform="translate(-0.5 -0.5)"/><path class="cls-1" d="M296.45,357.14l-1.47.64-4.53-10.31,1.46-.65-1.49-3.4-8.89,3.91,1.5,3.4,1.36-.6,1.74,4-2.95,1.3L276,349.75l-5.76,2.53,1.49,3.41,1.1-.49,5,3.52-.38.42a4.17,4.17,0,0,0-1,2.24,4.66,4.66,0,0,0,.35,2.58,4.72,4.72,0,0,0,2.38,2.46,5.47,5.47,0,0,0,3.52.37,15.29,15.29,0,0,0,1.53-.41c.53-.17,1.2-.42,2-.71s1.57-.64,2.45-1l9.34-4.1ZM288,361.29a18.7,18.7,0,0,1-2.29.89,2.52,2.52,0,0,1-.67.09,2.38,2.38,0,0,1-.91-.18,2.15,2.15,0,0,1-1.15-1.2,2.09,2.09,0,0,1-.09-1.66,2.32,2.32,0,0,1,.95-1.19,16.28,16.28,0,0,1,2.11-1l1.23-.54,1.91,4.35Z" transform="translate(-0.5 -0.5)"/><path class="cls-1" d="M297,355.82l-1.46.64L291.77,348l1.46-.64-2.3-5.24-10.71,4.71,2.3,5.24,1.36-.6.93,2.13-1.48.65-7.16-5.64-7.23,3.18,2.3,5.23,1.49-.65,3.64,2.55a5.44,5.44,0,0,0-.95,2.32,5.63,5.63,0,0,0,.43,3.14,5.78,5.78,0,0,0,2.86,3,6.35,6.35,0,0,0,2.68.59,6.71,6.71,0,0,0,1.48-.16c.55-.12,1.09-.26,1.63-.43s1.24-.43,2-.73l2.49-1,10.26-4.51Zm-8.16,9.28c-.88.39-1.7.73-2.47,1s-1.43.54-2,.72-1.08.32-1.58.43a6,6,0,0,1-3.84-.4,5.21,5.21,0,0,1-2.61-2.72,5.11,5.11,0,0,1-.39-2.86,4.72,4.72,0,0,1,1.17-2.5l-4.3-3-1.3.57L269.6,352l6.49-2.86,7.17,5.64,2.21-1-1.34-3-1.36.6-1.89-4.32,9.8-4.31,1.89,4.32-1.46.64,4.13,9.4,1.46-.64,1.9,4.31Z" transform="translate(-0.5 -0.5)"/><path class="cls-1" d="M296.7,356.48l-1.46.64-4.13-9.4,1.46-.64-1.89-4.32-9.8,4.31,1.89,4.32,1.36-.6,1.34,3-2.21,1-7.17-5.64L269.6,352l1.89,4.31,1.3-.57,4.3,3a4.72,4.72,0,0,0-1.17,2.5,5.11,5.11,0,0,0,.39,2.86,5.21,5.21,0,0,0,2.61,2.72,6,6,0,0,0,3.84.4c.5-.11,1-.25,1.58-.43s1.23-.42,2-.72,1.59-.64,2.47-1l9.8-4.31Zm-8.1,8.16c-.88.39-1.69.73-2.45,1s-1.41.53-2,.71-1,.31-1.53.41a5.47,5.47,0,0,1-3.52-.37,4.72,4.72,0,0,1-2.38-2.46,4.66,4.66,0,0,1-.35-2.58,4.17,4.17,0,0,1,1-2.24l.38-.42-5-3.52-1.1.49-1.49-3.41,5.76-2.53,7.16,5.64,2.95-1.3-1.74-4-1.36.6-1.5-3.4,8.89-3.91,1.49,3.4-1.46.65L295,357.78l1.47-.64,1.49,3.4Z" transform="translate(-0.5 -0.5)"/><path class="cls-1" d="M285.94,357a16.28,16.28,0,0,0-2.11,1,2.32,2.32,0,0,0-.95,1.19,2.09,2.09,0,0,0,.09,1.66,2.15,2.15,0,0,0,1.15,1.2,2.38,2.38,0,0,0,.91.18,2.52,2.52,0,0,0,.67-.09,18.7,18.7,0,0,0,2.29-.89l1.09-.48-1.91-4.35Zm1.85,3.83a21.29,21.29,0,0,1-2.22.87,1.81,1.81,0,0,1-2.25-2.29,1.89,1.89,0,0,1,.76-1,16.22,16.22,0,0,1,2-1l.77-.34,1.51,3.43Z" transform="translate(-0.5 -0.5)"/><path class="cls-1" d="M251.16,360.2a11.28,11.28,0,0,0-8.43-1.12,10.87,10.87,0,0,0-7.3,4.67,9.86,9.86,0,0,0-1.45,7.63,10,10,0,0,0,1.51,3.55,10.69,10.69,0,0,0,2.83,2.78q3.48,2.43,8.66,1.32a13.64,13.64,0,0,0,2.24-.65,12.22,12.22,0,0,0,1.89-.92,9.21,9.21,0,0,0,1.61-1.24,10.05,10.05,0,0,0,3-9.47A9.51,9.51,0,0,0,251.16,360.2Zm-3.5,12.8a2.07,2.07,0,0,1-1.64,1.49,2,2,0,0,1-2.14-.73,10.65,10.65,0,0,1-1.53-4.19,10.27,10.27,0,0,1-.31-4.51,2.08,2.08,0,0,1,1.65-1.5,2,2,0,0,1,2.11.74,10.23,10.23,0,0,1,1.55,4.2A10.38,10.38,0,0,1,247.66,373Z" transform="translate(-0.5 -0.5)"/><path class="cls-1" d="M243.92,379.88a10,10,0,0,1-5.89-1.76,11,11,0,0,1-2.95-2.91,10.58,10.58,0,0,1-.08-11.73,11.41,11.41,0,0,1,7.62-4.89,11.85,11.85,0,0,1,8.8,1.18,10.1,10.1,0,0,1,4.78,6.87,10.61,10.61,0,0,1-.19,5.16,10.5,10.5,0,0,1-2.94,4.78,9.75,9.75,0,0,1-1.7,1.31,12.61,12.61,0,0,1-2,.95,15.31,15.31,0,0,1-2.31.68A15,15,0,0,1,243.92,379.88Zm1.79-20.63a14,14,0,0,0-2.88.32,10.49,10.49,0,0,0-7,4.45,9.51,9.51,0,0,0,.06,10.62,10.46,10.46,0,0,0,2.69,2.66c2.2,1.53,5,1.95,8.28,1.24a13.37,13.37,0,0,0,2.16-.63,12.21,12.21,0,0,0,1.82-.88,9.17,9.17,0,0,0,1.52-1.17,9.58,9.58,0,0,0,2.84-9,9.12,9.12,0,0,0-4.31-6.22h0a9.94,9.94,0,0,0-5.18-1.39Zm-.23,15.83a2.49,2.49,0,0,1-2-1,10.92,10.92,0,0,1-1.64-4.41c-.49-2.28-.59-3.84-.3-4.76a2.56,2.56,0,0,1,2-1.83,2.5,2.5,0,0,1,2.6.9,16,16,0,0,1,2,9.17,2.58,2.58,0,0,1-2,1.83A2.51,2.51,0,0,1,245.48,375.08Zm-1.27-11h-.42a1.59,1.59,0,0,0-1.28,1.16c-.15.51-.23,1.66.33,4.25s1.07,3.56,1.42,4a1.7,1.7,0,0,0,2.92-.59h0c.16-.51.23-1.65-.32-4.24s-1.08-3.57-1.44-4a1.5,1.5,0,0,0-1.21-.66Z" transform="translate(-0.5 -0.5)"/><path class="cls-1" d="M211.78,372.91a23.61,23.61,0,0,0-3.59-1.8,12.48,12.48,0,0,1-2.53-1.27,1.32,1.32,0,0,1-.58-1.09c0-.85.49-1.28,1.55-1.31,1.46,0,2.48.8,3.05,2.5l4.43-.11-.16-6.31-4.43.11v1.29a7.74,7.74,0,0,0-4.75-1.43,6.53,6.53,0,0,0-4.6,1.86,5.49,5.49,0,0,0-1.73,4.23,6,6,0,0,0,.85,3,6.48,6.48,0,0,0,.89,1.19,5,5,0,0,0,1,.89,38.17,38.17,0,0,0,3.93,2,23.35,23.35,0,0,1,2.6,1.3,1,1,0,0,1,.43.89q0,1.23-1.41,1.26a2.93,2.93,0,0,1-2.92-2.25l-4.4.11.14,5.61,4.46-.11v-1.22a6.63,6.63,0,0,0,4.42,1.36,6.37,6.37,0,0,0,4.32-1.65,5.85,5.85,0,0,0,.86-7.1A6,6,0,0,0,211.78,372.91Z" transform="translate(-0.5 -0.5)"/><path class="cls-1" d="M208.24,384.12a7.39,7.39,0,0,1-3.68-.92V384l-5.46.14-.16-6.61,5.25-.13.13.34c.51,1.34,1.28,2,2.44,1.92a1.32,1.32,0,0,0,.75-.2.66.66,0,0,0,.17-.55.52.52,0,0,0-.21-.48,18.13,18.13,0,0,0-2.53-1.27,40.74,40.74,0,0,1-4-2.05,5.67,5.67,0,0,1-1.13-1,7.24,7.24,0,0,1-1-1.28,6.49,6.49,0,0,1-.92-3.21,6,6,0,0,1,1.88-4.61,7,7,0,0,1,4.94-2,8.15,8.15,0,0,1,4.24,1v-.87l5.43-.14.18,7.32-5.3.13-.11-.35c-.51-1.5-1.33-2.21-2.57-2.16-1,0-1.07.43-1.06.8a.83.83,0,0,0,.38.7,11.48,11.48,0,0,0,2.43,1.21,23.64,23.64,0,0,1,3.66,1.84,6.47,6.47,0,0,1,2,2.1,6.35,6.35,0,0,1-.94,7.74,6.87,6.87,0,0,1-4.65,1.78Zm-4.73-2.91.83.64a6.2,6.2,0,0,0,4.11,1.26,6,6,0,0,0,4-1.52,5.38,5.38,0,0,0,.77-6.47,5.52,5.52,0,0,0-1.71-1.79h0a23.33,23.33,0,0,0-3.5-1.75,13.15,13.15,0,0,1-2.65-1.33,1.84,1.84,0,0,1-.77-1.48c0-.53.15-1.77,2-1.82a3.46,3.46,0,0,1,3.41,2.49l3.57-.09-.13-5.31-3.44.09.05,1.77-.81-.56a7.2,7.2,0,0,0-4.46-1.34,5.92,5.92,0,0,0-4.25,1.71,5,5,0,0,0-1.59,3.87,5.61,5.61,0,0,0,.78,2.74,6.69,6.69,0,0,0,.82,1.1,4.85,4.85,0,0,0,.94.81,37.24,37.24,0,0,0,3.87,2,18.34,18.34,0,0,1,2.69,1.36,1.49,1.49,0,0,1,.63,1.27,1.63,1.63,0,0,1-.5,1.32,2.09,2.09,0,0,1-1.4.46,3.33,3.33,0,0,1-3.26-2.24l-3.56.09.12,4.6,3.46-.08Z" transform="translate(-0.5 -0.5)"/><polygon class="cls-1" points="168.46 365.41 170.24 365.66 168.85 375.83 167.07 375.59 166.43 380.26 177.56 381.77 178.19 377.1 176.4 376.86 177.78 366.69 179.58 366.93 180.22 362.26 169.09 360.74 168.46 365.41"/><path class="cls-1" d="M178.49,382.84l-12.12-1.65.77-5.67,1.78.25,1.25-9.19-1.78-.24.77-5.66,12.12,1.65-.77,5.66-1.8-.24-1.25,9.18,1.8.24Zm-11-2.51,10.14,1.38.5-3.68-1.79-.24,1.52-11.17,1.79.25.5-3.68L170,361.8l-.5,3.69,1.78.24-1.52,11.16-1.78-.24Z" transform="translate(-0.5 -0.5)"/><polygon class="cls-1" points="131.76 359.13 136.24 360.54 137.19 357.52 141.63 358.92 138.56 368.71 136.78 368.15 135.36 372.65 146.1 376.03 147.52 371.53 145.83 371 148.9 361.2 150.59 361.73 152 357.23 134.12 351.62 131.76 359.13"/><path class="cls-1" d="M146.93,377.15l-11.69-3.67L137,368l1.78.56,2.78-8.84-3.49-1.1-1,3L131.63,360l2.66-8.47,18.84,5.92-1.71,5.45-1.69-.53-2.73,8.8,1.68.53Zm-10.44-4.32,9.79,3.07,1.11-3.55-1.69-.53,3.38-10.74,1.68.53,1.12-3.55-16.94-5.32-2.05,6.56,3.53,1.11.94-3,5.4,1.69-3.37,10.75-1.79-.56Z" transform="translate(-0.5 -0.5)"/><polygon class="cls-1" points="98.42 343.07 102.56 345.3 104.06 342.52 108.16 344.74 103.28 353.77 101.64 352.88 99.4 357.03 109.3 362.38 111.54 358.23 109.98 357.39 114.86 348.36 116.42 349.2 118.66 345.05 102.16 336.14 98.42 343.07"/><path class="cls-1" d="M110,363.56l-10.79-5.83,2.72-5,1.64.88,4.4-8.15-3.22-1.74-1.5,2.78-5-2.71,4.21-7.81,17.38,9.39-2.72,5-1.55-.84-4.41,8.16,1.56.84Zm-9.43-6.23,9,4.87,1.77-3.27-1.56-.84,5.35-9.91,1.56.84,1.76-3.27-15.61-8.43-3.27,6.05,3.26,1.75,1.5-2.78,5,2.7L104,355l-1.64-.89Z" transform="translate(-0.5 -0.5)"/><path class="cls-1" d="M80.17,319.67A10.88,10.88,0,0,0,72,316.73a9.84,9.84,0,0,0-6.93,3.5,10.15,10.15,0,0,0-1.89,3.36,11,11,0,0,0-.49,3.94q.2,4.23,4.23,7.67a14.88,14.88,0,0,0,1.88,1.38,13.31,13.31,0,0,0,1.89.94,9.35,9.35,0,0,0,2,.52,10.06,10.06,0,0,0,5.32-.55,10.18,10.18,0,0,0,4-2.85,9.52,9.52,0,0,0,2.42-7.59A11.33,11.33,0,0,0,80.17,319.67Zm-2.29,5.64a10.26,10.26,0,0,1-2.39,3.79,10.25,10.25,0,0,1-3.38,3,2.08,2.08,0,0,1-2.18-.39,2,2,0,0,1-.72-2.14,10.53,10.53,0,0,1,2.39-3.77,10.17,10.17,0,0,1,3.39-3,2.1,2.1,0,0,1,2.19.39,2,2,0,0,1,.7,2.12Z" transform="translate(-0.5 -0.5)"/><path class="cls-1" d="M74.4,338.67a13.62,13.62,0,0,1-1.8-.13,10,10,0,0,1-2.08-.56,12.88,12.88,0,0,1-2-1,14.83,14.83,0,0,1-1.94-1.42c-2.79-2.37-4.27-5.07-4.41-8a11.45,11.45,0,0,1,.51-4.11A10.62,10.62,0,0,1,72,316.23a11.41,11.41,0,0,1,8.52,3.06h0a11.79,11.79,0,0,1,4.41,7.7,10,10,0,0,1-2.53,8,10.72,10.72,0,0,1-4.2,3A10.06,10.06,0,0,1,74.4,338.67Zm-1.54-21.48h-.8a9.59,9.59,0,0,0-8.39,6.51,10.65,10.65,0,0,0-.46,3.76c.12,2.67,1.49,5.14,4.05,7.32a14.88,14.88,0,0,0,1.82,1.33,12.2,12.2,0,0,0,1.81.9,8.52,8.52,0,0,0,1.86.5,9.69,9.69,0,0,0,5-.52,9.83,9.83,0,0,0,3.82-2.71,9,9,0,0,0,2.3-7.21A10.89,10.89,0,0,0,79.8,320h0A10.71,10.71,0,0,0,72.86,317.19Zm-1.55,15.54a2.73,2.73,0,0,1-2.65-2.81,3.93,3.93,0,0,1,.06-.48,10.78,10.78,0,0,1,2.5-4c1.52-1.78,2.69-2.81,3.59-3.14a2.6,2.6,0,0,1,2.69.48,2.52,2.52,0,0,1,.87,2.61,10.65,10.65,0,0,1-2.5,4,10.6,10.6,0,0,1-3.59,3.13A2.72,2.72,0,0,1,71.31,332.73Zm4.48-9.59a1.68,1.68,0,0,0-.63.12c-.5.18-1.46.82-3.18,2.84s-2.16,3-2.28,3.56a1.69,1.69,0,0,0,1.31,2,1.64,1.64,0,0,0,.93-.06c.5-.18,1.45-.82,3.17-2.84s2.17-3,2.28-3.56h0a1.54,1.54,0,0,0-.54-1.64A1.62,1.62,0,0,0,75.79,323.14Z" transform="translate(-0.5 -0.5)"/><path class="cls-1" d="M291.05,216.18a23,23,0,0,0,10-8.75A24.38,24.38,0,0,0,304.92,194a25.19,25.19,0,0,0-6.29-17,28.72,28.72,0,0,0-16.2-9.23,78.32,78.32,0,0,0-7.79-1.2c-2.83-.3-6.22-.52-10.19-.68s-.54-.24-5.18-.24c6.11-6.06,25.52-23.58,46.7-42.7,8.84-8,18-16.23,26.6-24,11.81-10.7,22.62-20.57,30.29-27.77,13.82-13,17.42-17.24-1.8-2-7.2,5.71-17.63,14.18-31.92,25.94-7.93,6.53-17.05,14.08-27.48,22.74-15.91,13.14-34.86,29-57.27,47.74-1.6,1.34-3.07,2.52-4.42,3.62h0l-.07.06-.22.18-.34.28-.81.66-.11.1-.07.06-.39.32-.47.38-.41.33-.23.19h0l-.08.06-1.25,1-.14.11-.74.61-.26.21-.35.28-.89.74-.34.27-.57.47-.7.57-1.91,1.57,1.12-.92L229.31,178h0l-.09.07h-.06l-1,.86-.1.08-.29.24-.11.09h0l-.07.06L212.18,192l-4.6,3.77v42.16h-7.73V260.7h51.68V237.92h-7.17V221.86h11.69l20.71,38.83H311V237.92h-6.84Zm-26.46-14.83a8.74,8.74,0,0,1-5.2,2.73,79.83,79.83,0,0,1-10.93.48h-4.1V186.45h3.35a91.69,91.69,0,0,1,11.48.48,9,9,0,0,1,5.4,2.73,8.13,8.13,0,0,1,2.12,5.88,7.87,7.87,0,0,1-2.12,5.81Z" transform="translate(-0.5 -0.5)"/><path class="cls-1" d="M311.51,261.19H276.46l-.14-.27-20.57-38.56H244.86v15.06H252v23.77H199.35V237.42h7.73v-41.9l20-16.38.28.35-.22-.4h0l.4-.33.42.31-.31-.39,1-.86.43.3-.32-.39,7.66-6.27.26.2-.21-.24.17.16-.16-.17,3.9-3.19c1.13-.92,2.35-1.91,3.65-3,21.73-18.21,41-34.3,57.27-47.83,10.19-8.47,19.44-16.12,27.48-22.74,13.79-11.35,24.53-20.08,31.93-25.95,13.23-10.49,13.52-10.13,14-9.61s.75.87-11.52,12.38c-6.75,6.34-16.38,15.16-30.29,27.77-8,7.26-16.46,14.89-24.71,22.33l-1.9,1.71c-19,17.19-38.7,34.93-45.81,41.83a8.92,8.92,0,0,1,1.79.08,14.67,14.67,0,0,0,2.19.16c4,.16,7.4.39,10.22.68,2.64.27,5.26.68,7.85,1.21A29.42,29.42,0,0,1,299,176.62,25.87,25.87,0,0,1,305.42,194a25,25,0,0,1-3.9,13.66,23.58,23.58,0,0,1-9.76,8.7l12.69,21h7.06Zm-34.45-1h33.45V238.42h-6.62L290.33,216l.51-.23a22.58,22.58,0,0,0,9.83-8.57,24,24,0,0,0,3.75-13.2,24.89,24.89,0,0,0-6.17-16.77,28.44,28.44,0,0,0-15.92-9.06,74.94,74.94,0,0,0-7.74-1.19c-2.8-.29-6.22-.52-10.16-.68a15.4,15.4,0,0,1-2.35-.18,18.81,18.81,0,0,0-2.81-.06h-1.22l.86-.86c6.26-6.19,26.83-24.76,46.72-42.71l1.9-1.71c8.25-7.44,16.7-15.08,24.71-22.33,13.9-12.61,23.53-21.43,30.28-27.76,5.82-5.46,8.71-8.34,10.11-9.85-1.7,1.17-5,3.62-11.26,8.59C354,75.3,343.24,84,329.46,95.37c-8,6.62-17.29,14.27-27.48,22.74-16.27,13.53-35.54,29.62-57.27,47.83l-3.66,3-2.21,1.8-.43-.29.32.38-1.57,1.29h0l-7.65,6.27-.43-.3.33.38-.09.07-1.43,1.18-.38-.26.3.32-.23-.24.21.25-.19-.2.18.22h-.08L208.08,196v42.42h-7.73v21.77H251V238.42h-7.17V221.36h12.48l.15.26Zm-28.6-55.13h-4.6V186h3.85a92.81,92.81,0,0,1,11.55.48,9.53,9.53,0,0,1,5.69,2.89,8.6,8.6,0,0,1,2.26,6.22A8.4,8.4,0,0,1,265,201.7a9.39,9.39,0,0,1-5.48,2.88,81.73,81.73,0,0,1-11.06.48Zm-3.6-1h3.6a80.26,80.26,0,0,0,10.85-.47,8.31,8.31,0,0,0,4.92-2.58h0a7.43,7.43,0,0,0,2-5.46,7.61,7.61,0,0,0-2-5.53,8.46,8.46,0,0,0-5.11-2.59,92.49,92.49,0,0,0-11.41-.47h-2.85Z" transform="translate(-0.5 -0.5)"/><path class="cls-1" d="M229.86,151V140.68h7.45V117.91h-57L166,154.62l-14-36.71H94.58v22.77h7.52v49.56H94.79V213h36.84V190.24h-7.52V137.81L152.55,213c-21.13,18.14-39.09,33.61-54.26,46.74C89.15,267.65,81,274.7,73.85,281,60.44,292.66,50.32,301.58,43,308.15c-24.36,21.87-17.59,17.53,2,2.34,8.7-6.79,20-15.76,32.18-25.49,8.18-6.54,16.76-13.44,25.26-20.28,29.08-23.42,57.15-46.19,64.33-51.69l5.65-14.92,23.06-61v42.06Z" transform="translate(-0.5 -0.5)"/><path class="cls-1" d="M27.36,323.73a.41.41,0,0,1-.36-.21c-.47-.55-.8-.95,15.68-15.74,7.49-6.73,17.87-15.88,30.84-27.2,7.18-6.25,15.3-13.31,24.45-21.22,15.48-13.4,33.65-29.05,54-46.51l-27.35-72.31v49.2h7.52V213.5H94.29V189.74h7.31V141.18H94.08V117.42h58.2L166,153.24l14-35.82h57.85v23.76H230.4v10.07l-35.38,29V139.86l-27.8,73.45-.11.09c-5.14,3.94-20.64,16.44-40.26,32.28-7.63,6.16-15.8,12.75-24.06,19.4-8.49,6.84-17.08,13.74-25.25,20.28-13.74,11-24.28,19.34-32.23,25.52C31.09,321.91,28.2,323.73,27.36,323.73Zm96.25-188.66,29.53,78.08-.27.23c-20.44,17.55-38.7,33.27-54.25,46.73-9.14,7.92-17.26,15-24.44,21.23-13,11.31-23.34,20.45-30.83,27.18-8.52,7.65-12.44,11.39-14.19,13.19,2.09-1.4,6.46-4.59,15.49-11.61,8-6.18,18.49-14.53,32.22-25.52,8.18-6.54,16.76-13.44,25.26-20.28l24.06-19.4c19.48-15.73,34.9-28.17,40.16-32.21L196,134.39v43.73l33.38-27.35V140.18h7.45V118.42H180.64L165.94,156l-14.35-37.59H95.08v21.76h7.52v50.56H95.29V212.5h35.84V190.74h-7.52Z" transform="translate(-0.5 -0.5)"/><path class="cls-1" d="M64.14,267.4A140.16,140.16,0,0,1,42,192c0-82.71,73.09-150,162.94-150,44.43,0,84.76,16.46,114.18,43.1l31.71-26.56c-.74-.71-1.47-1.42-2.22-2.12C310.16,20.68,259.13,1,204.94,1S99.72,20.68,61.27,56.42C22.41,92.54,1,140.69,1,192A181,181,0,0,0,32.41,294Z" transform="translate(-0.5 -0.5)"/><path class="cls-1" d="M32.31,294.71l-.31-.45A181.87,181.87,0,0,1,.5,192C.5,140.55,22,92.27,60.93,56.05,99.48,20.23,150.62.5,204.94.5S310.4,20.23,349,56.05c.58.54,1.15,1.09,1.72,1.64l.91.87-32.47,27.2-.33-.29c-30.6-27.71-71-43-113.84-43C115.37,42.5,42.5,109.56,42.5,192a140.24,140.24,0,0,0,22.06,75.14l.24.37-.34.28ZM204.94,1.5c-54.07,0-105,19.63-143.33,55.29C22.85,92.81,1.5,140.83,1.5,192a180.79,180.79,0,0,0,31,101.25l31-25.94A141.09,141.09,0,0,1,41.5,192c0-83,73.32-150.49,163.44-150.49,42.9,0,83.44,15.24,114.19,42.93l30.95-25.92-.11-.1c-.56-.55-1.13-1.09-1.7-1.62C309.91,21.13,259,1.5,204.94,1.5Z" transform="translate(-0.5 -0.5)"/></g></g></svg>