<svg id="Layer_1" data-name="Layer 1" xmlns="http://www.w3.org/2000/svg" viewBox="0 0 247.71 118.18"><defs><style>.cls-1,.cls-2{fill:#e9cd88;}.cls-2{font-size:29px;font-family:HighTowerText-Reg, High Tower Text;letter-spacing:-0.05em;}</style></defs><g id="Layer_2" data-name="Layer 2"><g id="Layer_1-2" data-name="Layer 1-2"><path class="cls-1" d="M138.92,95.74" transform="translate(-70 -40.61)"/><polygon class="cls-1" points="69 55.26 68.81 55.02 68.84 55.05 68.81 55.02 69.02 55.24 69 55.25 69 55.25 69 55.26"/><polygon class="cls-1" points="111.18 30.02 110.96 29.61 109.7 30.31 110.81 32.37 112.07 31.68 111.84 31.26 114.74 29.66 111.44 33.55 111.87 34.34 116.92 33.64 113.99 35.26 113.76 34.83 112.5 35.53 113.99 38.31 115.25 37.62 115.02 37.19 117.76 35.68 117.98 36.09 119.24 35.4 117.53 32.2 115.07 32.52 116.68 30.61 114.95 27.4 113.69 28.09 113.92 28.51 111.18 30.02"/><path class="cls-1" d="M183.93,79.13l-1.63-3,1.51-.84.23.42,2.07-1.14-4.33.62-.53-1,2.83-3.32L182,72l.23.42-1.52.84-1.25-2.34L181,70l.22.41,2.47-1.38-.23-.42L185,67.8l1.85,3.45-1.42,1.68,2.17-.28,1.82,3.42-1.52.84-.22-.41-2.45,1.36.23.43Zm-1.21-2.93,1.34,2.51,1-.54-.24-.43,3-1.66.22.42,1-.55-1.59-3-2.73.35,1.8-2.12-1.6-3-1,.55.22.42-3,1.65-.21-.4-1,.54,1,1.8,1-.55-.23-.42,3.74-2.09-3.78,4.45.33.61,5.77-.8-3.8,2.1-.23-.43Z" transform="translate(-70 -40.61)"/><polygon class="cls-1" points="117.17 43.54 117.03 43 115.65 43.38 116.54 46.72 117.92 46.34 117.78 45.8 120.78 44.98 120.93 45.51 122.31 45.13 121.42 41.79 120.04 42.18 120.18 42.71 117.17 43.54"/><path class="cls-1" d="M186.44,87.52l-1-3.63,1.68-.46.14.54,2.72-.74-.15-.54,1.68-.46,1,3.63-1.68.46-.14-.53-2.73.73.14.54Zm-.61-3.42.82,3,1.08-.31-.14-.53,3.3-.91.15.54,1.08-.31-.81-3-1.08.31.14.54-3.3.9-.15-.54Z" transform="translate(-70 -40.61)"/><path class="cls-1" d="M190.52,92.52a3.05,3.05,0,0,0-2.12,1,3.34,3.34,0,0,0-.75,2.63,3,3,0,0,0,.72,2,2.85,2.85,0,0,0,1.62.83l.46-1.61c-.88-.1-1.34-.45-1.37-1s.5-1.05,1.61-1.12,1.69.24,1.73.89a1,1,0,0,1-.2.65,1.29,1.29,0,0,1-.61.44l.09,1.51,2.18-.13L193.8,97l-.4,0a3.07,3.07,0,0,0-.61-3.86A3.2,3.2,0,0,0,190.52,92.52Z" transform="translate(-70 -40.61)"/><path class="cls-1" d="M190.08,99.07l-.13,0a2.86,2.86,0,0,1-1.7-.87,3.14,3.14,0,0,1-.77-2.07,3.53,3.53,0,0,1,.79-2.74,3.23,3.23,0,0,1,2.23-1h0a3.28,3.28,0,0,1,2.35.73,2.87,2.87,0,0,1,1.09,2.19,3.18,3.18,0,0,1-.3,1.61h.26l.1,1.76-2.48.15L191.41,97l.11,0a1.12,1.12,0,0,0,.55-.38.84.84,0,0,0,.17-.55c0-.21-.05-.83-1.57-.74s-1.48.74-1.47,1c0,.52.43.81,1.24.91l.18,0Zm.44-6.41a3,3,0,0,0-2,.92,3.21,3.21,0,0,0-.71,2.52,2.89,2.89,0,0,0,.68,1.87,2.64,2.64,0,0,0,1.41.76l.37-1.3c-.85-.14-1.3-.54-1.33-1.17,0-.78.57-1.21,1.78-1.28s1.84.28,1.89,1a1.12,1.12,0,0,1-.23.75,1.35,1.35,0,0,1-.58.45l.07,1.25,1.87-.11-.06-1.15-.56,0,.18-.26a2.65,2.65,0,0,0,.39-1.67,2.55,2.55,0,0,0-1-2,3,3,0,0,0-2.15-.67Z" transform="translate(-70 -40.61)"/><polygon class="cls-1" points="121.98 65.13 118.92 64.54 119 64.09 117.59 63.82 117.01 66.96 118.42 67.23 118.49 66.85 119.45 67.03 119.19 68.41 118.23 68.23 118.3 67.84 116.89 67.57 116.31 70.72 117.72 70.99 117.8 70.54 120.87 71.12 120.78 71.57 122.19 71.84 122.77 68.7 121.37 68.43 121.3 68.81 120.4 68.64 120.66 67.26 121.55 67.43 121.48 67.82 122.89 68.08 123.47 64.94 122.07 64.67 121.98 65.13"/><path class="cls-1" d="M192.31,112.63l-1.7-.32.08-.45-2.77-.53-.08.45-1.7-.33.64-3.44,1.7.32-.07.39.67.13.2-1.08-.67-.13-.07.38-1.71-.33.64-3.43,1.71.32-.09.45,2.77.53.08-.46,1.71.33-.64,3.45-1.71-.34.07-.38-.61-.12-.2,1.08.61.11.07-.38,1.71.33Zm-1.35-.57,1.11.21.53-2.84-1.11-.21-.07.39-1.2-.23.31-1.69,1.19.23-.07.38,1.11.22.53-2.85-1.11-.21-.09.46-3.36-.65.08-.45-1.1-.21-.53,2.84,1.11.21.07-.38,1.26.24-.3,1.68-1.26-.24.07-.38-1.11-.22-.53,2.84,1.11.21.08-.45,3.36.66Z" transform="translate(-70 -40.61)"/><polygon class="cls-1" points="117.19 79.98 116.4 79.25 116.14 79.85 117.19 79.98"/><path class="cls-1" d="M188.54,119.35l-.22.5-2.62-2.56.17-.38-1-.47-.85,1.92.91.41.23-.51.81.78-.71,1.62-1.1-.14.24-.53-.91-.42-1.16,2.61,1,.46.16-.36,3.65.26-.23.51,1,.46,1.64-3.69Zm-2.85,1.37.61-1.38,1.78,1.68Z" transform="translate(-70 -40.61)"/><path class="cls-1" d="M188.39,118.94l-.17.38-2.16-2.1.21-.47-1.59-.71-1.09,2.46,1.47.67.18-.39.34.33-.53,1.21-.47-.06.2-.44-1.48-.67-1.4,3.17,1.59.73.2-.45,3,.2-.17.39,1.59.72,1.88-4.26Zm-.38,4.78-1.31-.6.2-.44-3.31-.24-.18.41-1.31-.59,1.28-2.9,1.2.55-.22.49.78.09.63-1.41-.58-.56-.2.46-1.22-.55,1-2.19,1.31.59-.18.43,2.38,2.33.2-.45,1.3.6Z" transform="translate(-70 -40.61)"/><path class="cls-1" d="M187.63,120.81l-1.28-1.21-.44,1Zm-1.23-1,.79.73-1.05-.13Z" transform="translate(-70 -40.61)"/><path class="cls-1" d="M185.69,120.72l2.39.3-1.78-1.67Zm1.94.09-1.72-.22.44-1Z" transform="translate(-70 -40.61)"/><path class="cls-1" d="M188.46,119.14l-.2.45-2.38-2.33.19-.43-1.31-.59-1,2.19L185,119l.2-.46.58.56-.62,1.41-.78-.09.21-.49-1.19-.55-1.27,2.9,1.3.59.18-.41,3.32.24-.2.44,1.31.6,1.74-4Zm-.53,4.37-1-.46.23-.51-3.64-.26-.17.36-1-.46,1.15-2.61.91.42-.24.53,1.1.14.71-1.62-.81-.78-.23.51-.91-.41.84-1.92,1,.47-.16.38,2.61,2.56.23-.5,1,.46Z" transform="translate(-70 -40.61)"/><polygon class="cls-1" points="112.87 89.22 110.36 87.34 110.64 86.96 109.49 86.1 106.1 90.76 107.64 91.91 108.57 90.63 108.19 90.34 108.99 89.23 109.78 89.82 109.08 90.78 110.06 91.52 110.76 90.55 111.5 91.11 110.69 92.22 110.31 91.92 109.38 93.21 110.92 94.36 114.31 89.69 113.16 88.83 112.87 89.22"/><path class="cls-1" d="M181,135.19l-1.8-1.34,1.11-1.54.39.29.63-.86-.5-.37-.7,1-1.22-.92.71-1L179,130l-.62.87.38.29-1.11,1.54-1.78-1.34,3.57-4.89,1.39,1-.27.38,2.26,1.69.28-.38,1.4,1Zm-1.36-1.39,1.3,1,3.21-4.42-.92-.68-.27.39L180.15,128l.28-.38-.91-.68-3.21,4.39,1.3,1,.75-1L178,131l1-1.36,1,.78-.7,1,.74.55.7-1,1,.73-1,1.36-.39-.29Z" transform="translate(-70 -40.61)"/><polygon class="cls-1" points="105.1 98.64 103 96.29 103.4 95.93 102.44 94.85 98.22 98.73 99.83 100.52 100.88 99.55 100.24 98.83 101.29 97.87 103.38 100.21 102.96 100.6 103.92 101.68 106.45 99.35 105.49 98.27 105.1 98.64"/><path class="cls-1" d="M173.91,142.51l-1.16-1.32.42-.38-1.89-2.12-.83.76.65.72-1.29,1.18-1.8-2,4.44-4.08,1.17,1.3-.4.37,1.89,2.12.4-.36,1.17,1.3Zm-.74-1.29.76.85,2.31-2.12-.76-.85-.4.37-2.3-2.57.39-.37-.75-.85-4,3.66,1.4,1.58.84-.77-.64-.72,1.27-1.17,2.29,2.57Z" transform="translate(-70 -40.61)"/><path class="cls-1" d="M159.86,150.48l-.45.19L158,147.5l.44-.2-.45-1.05-2.7,1.21.45,1,.42-.18.52,1.23-.89.4-2.18-1.75-1.75.78.45,1.05.34-.15L154.2,151l-.11.13a1.3,1.3,0,0,0-.3.69,1.46,1.46,0,0,0,.1.8,1.52,1.52,0,0,0,.72.76,1.71,1.71,0,0,0,1.07.11,4.12,4.12,0,0,0,.47-.13l.6-.21c.25-.09.48-.2.75-.31l2.83-1.27Zm-2.57,1.28c-.22.1-.46.19-.69.27a.76.76,0,0,1-.21,0,.63.63,0,0,1-.27-.06.64.64,0,0,1-.35-.37.65.65,0,0,1,0-.51.7.7,0,0,1,.29-.37,4.68,4.68,0,0,1,.64-.3l.37-.17.58,1.34Z" transform="translate(-70 -40.61)"/><path class="cls-1" d="M160,150.07l-.44.2-1.14-2.61.44-.2-.7-1.61-3.25,1.45.7,1.62.41-.19.28.66-.45.2-2.17-1.74-2.2,1,.7,1.61.46-.2,1.1.79a1.65,1.65,0,0,0-.29.71,1.83,1.83,0,0,0,1,1.89,1.91,1.91,0,0,0,.81.18,1.64,1.64,0,0,0,.45-.05,4.07,4.07,0,0,0,.5-.13l.61-.22.75-.31,3.12-1.39Zm-2.47,2.86-.75.31-.61.22a3.47,3.47,0,0,1-.48.13,1.82,1.82,0,0,1-1.17-.12,1.62,1.62,0,0,1-.79-.84,1.66,1.66,0,0,1-.12-.88A1.45,1.45,0,0,1,154,151l-1.31-.92-.39.17-.58-1.34,2-.88,2.17,1.74.67-.31-.4-.92-.42.18-.57-1.33,3-1.33.57,1.34-.44.19,1.25,2.9.44-.2.58,1.33Z" transform="translate(-70 -40.61)"/><path class="cls-1" d="M159.93,150.27l-.44.2-1.25-2.89.44-.2-.57-1.33-3,1.33.57,1.33.42-.19.4.93-.67.3L153.68,148l-2,.87.57,1.33.39-.17L154,151a1.49,1.49,0,0,0-.36.77,1.65,1.65,0,0,0,.12.88,1.62,1.62,0,0,0,.79.84,1.82,1.82,0,0,0,1.17.12,3.9,3.9,0,0,0,.48-.13l.61-.22.75-.31,3-1.33Zm-2.46,2.52c-.26.12-.51.22-.74.31s-.43.16-.61.21a3.25,3.25,0,0,1-.46.13,1.71,1.71,0,0,1-1.07-.11,1.44,1.44,0,0,1-.72-.76,1.46,1.46,0,0,1-.11-.8,1.38,1.38,0,0,1,.3-.69l.12-.12-1.52-1.09-.33.15-.45-1.05,1.74-.78,2.18,1.74.89-.4-.52-1.23-.42.18-.45-1,2.7-1.2.45,1.05-.44.2,1.41,3.19.44-.19.46,1.05Z" transform="translate(-70 -40.61)"/><path class="cls-1" d="M156.67,150.43a4.73,4.73,0,0,0-.64.31.7.7,0,0,0-.29.37.69.69,0,0,0,0,.51.67.67,0,0,0,.35.37.71.71,0,0,0,.28.06.64.64,0,0,0,.2,0,6,6,0,0,0,.7-.28l.33-.14-.58-1.34Zm.56,1.18a4.37,4.37,0,0,1-.68.27.54.54,0,0,1-.68-.37.62.62,0,0,1,0-.33.56.56,0,0,1,.23-.31,5,5,0,0,1,.61-.31l.23-.1.46,1Z" transform="translate(-70 -40.61)"/><path class="cls-1" d="M146.11,151.42a3.38,3.38,0,0,0-2.56-.34,3.25,3.25,0,0,0-2.22,1.43,3.1,3.1,0,0,0,.88,4.3,3.18,3.18,0,0,0,2.63.41,4.07,4.07,0,0,0,.68-.2,3.77,3.77,0,0,0,.57-.28,3.05,3.05,0,0,0,.49-.38,3.12,3.12,0,0,0,.91-2.92A2.92,2.92,0,0,0,146.11,151.42ZM145,155.36a.61.61,0,0,1-.49.46.6.6,0,0,1-.65-.22,3.14,3.14,0,0,1-.47-1.29,3.27,3.27,0,0,1-.09-1.39.62.62,0,0,1,.5-.46.59.59,0,0,1,.64.22A3.18,3.18,0,0,1,145,154,3.22,3.22,0,0,1,145,155.36Z" transform="translate(-70 -40.61)"/><path class="cls-1" d="M143.91,157.48a3,3,0,0,1-1.79-.54,3.35,3.35,0,0,1-.9-.9,3.31,3.31,0,0,1,0-3.61,3.48,3.48,0,0,1,2.31-1.51,3.59,3.59,0,0,1,2.68.37,3.12,3.12,0,0,1,1.45,2.11,3.33,3.33,0,0,1-.95,3.07,3.15,3.15,0,0,1-1.13.69,4.79,4.79,0,0,1-1.65.32Zm.54-6.35a3.63,3.63,0,0,0-.87.1,3.14,3.14,0,0,0-2.13,1.37,3,3,0,0,0,0,3.27,3.2,3.2,0,0,0,.82.82,3.06,3.06,0,0,0,2.51.38,5.46,5.46,0,0,0,.66-.19,4.07,4.07,0,0,0,.55-.28,2.28,2.28,0,0,0,.46-.36,2.94,2.94,0,0,0,.86-2.77,2.78,2.78,0,0,0-1.31-1.91h0a2.9,2.9,0,0,0-1.57-.43Zm-.07,4.87a.77.77,0,0,1-.61-.3,3.33,3.33,0,0,1-.49-1.36,3.26,3.26,0,0,1-.09-1.47.76.76,0,0,1,.6-.56.74.74,0,0,1,.79.27,5,5,0,0,1,.61,2.83.78.78,0,0,1-.61.56A.64.64,0,0,1,144.38,156Zm-.38-3.38h-.13a.48.48,0,0,0-.39.35,2.94,2.94,0,0,0,.1,1.31,3.17,3.17,0,0,0,.43,1.23.51.51,0,0,0,.73.07.6.6,0,0,0,.16-.25h0a2.9,2.9,0,0,0-.1-1.3,3.08,3.08,0,0,0-.44-1.24.45.45,0,0,0-.36-.2Z" transform="translate(-70 -40.61)"/><path class="cls-1" d="M134.15,155.34a6.6,6.6,0,0,0-1.09-.56,3.71,3.71,0,0,1-.77-.39.41.41,0,0,1-.17-.34c0-.26.14-.39.47-.4a.94.94,0,0,1,.92.77l1.35,0-.05-1.95-1.35,0v.39a2.38,2.38,0,0,0-1.44-.44,2,2,0,0,0-1.4.58,1.7,1.7,0,0,0-.52,1.3,1.75,1.75,0,0,0,.26.92,1.41,1.41,0,0,0,.27.37,1.27,1.27,0,0,0,.3.27,12.27,12.27,0,0,0,1.19.62,6.49,6.49,0,0,1,.79.4.31.31,0,0,1,.13.28c0,.25-.14.38-.42.38a.9.9,0,0,1-.89-.69l-1.34,0,.05,1.73,1.35,0v-.38a2,2,0,0,0,1.34.42,1.86,1.86,0,0,0,1.31-.51,1.81,1.81,0,0,0,.27-2.18A1.79,1.79,0,0,0,134.15,155.34Z" transform="translate(-70 -40.61)"/><path class="cls-1" d="M133.07,158.79a2.26,2.26,0,0,1-1.11-.28v.24l-1.66.05-.05-2,1.6,0,0,.1c.16.42.39.62.75.6a.34.34,0,0,0,.22-.07.17.17,0,0,0,.05-.17.13.13,0,0,0-.06-.14,5.1,5.1,0,0,0-.77-.4,9.94,9.94,0,0,1-1.21-.63,1.63,1.63,0,0,1-.34-.3,2.38,2.38,0,0,1-.31-.4,2.14,2.14,0,0,1-.28-1,1.89,1.89,0,0,1,.57-1.42,2.07,2.07,0,0,1,1.5-.61,2.41,2.41,0,0,1,1.29.3v-.26l1.65-.05.05,2.26-1.61,0,0-.11c-.15-.46-.4-.68-.78-.67s-.32.14-.32.25a.27.27,0,0,0,.11.22,3.41,3.41,0,0,0,.74.37,7.26,7.26,0,0,1,1.11.57,1.87,1.87,0,0,1,.61.64,2,2,0,0,1-.28,2.39,2.12,2.12,0,0,1-1.42.55Zm-1.43-.9.25.2a1.88,1.88,0,0,0,1.25.39,1.8,1.8,0,0,0,1.21-.47,1.68,1.68,0,0,0,.24-2,1.71,1.71,0,0,0-.52-.55h0a7.55,7.55,0,0,0-1.06-.54,4.39,4.39,0,0,1-.81-.41.59.59,0,0,1-.23-.46c0-.16,0-.54.6-.56a1.05,1.05,0,0,1,1,.77l1.08,0,0-1.64-1,0v.55l-.24-.18a2.21,2.21,0,0,0-1.36-.41,1.77,1.77,0,0,0-1.29.53,1.55,1.55,0,0,0-.48,1.19,1.74,1.74,0,0,0,.24.84,1.42,1.42,0,0,0,.25.34,1.32,1.32,0,0,0,.28.25,10.18,10.18,0,0,0,1.18.62,6.21,6.21,0,0,1,.81.42.46.46,0,0,1,.2.39.53.53,0,0,1-.16.41.71.71,0,0,1-.42.14,1,1,0,0,1-1-.69l-1.08,0,0,1.42,1,0Z" transform="translate(-70 -40.61)"/><polygon class="cls-1" points="51.15 112.57 51.69 112.64 51.27 115.78 50.73 115.7 50.53 117.14 53.91 117.61 54.1 116.17 53.56 116.09 53.98 112.96 54.52 113.03 54.72 111.6 51.34 111.13 51.15 112.57"/><path class="cls-1" d="M124,158.39l-3.68-.5.24-1.75.54.08.38-2.83-.54-.08.23-1.74,3.68.51-.23,1.74-.55-.07-.38,2.82.55.08Zm-3.34-.77,3.08.43.15-1.14-.54-.07.46-3.44.54.08.16-1.14-3.09-.43-.15,1.14.54.07-.46,3.44-.54-.07Z" transform="translate(-70 -40.61)"/><polygon class="cls-1" points="40.01 110.63 41.37 111.07 41.65 110.14 43 110.57 42.07 113.58 41.53 113.41 41.1 114.8 44.36 115.84 44.79 114.45 44.28 114.29 45.21 111.27 45.72 111.43 46.15 110.05 40.72 108.32 40.01 110.63"/><path class="cls-1" d="M114.46,156.64l-3.55-1.13.53-1.69.55.18.84-2.73-1.06-.34-.3.93-1.66-.5.81-2.61,5.72,1.82-.52,1.68-.51-.16-.83,2.71.51.16Zm-3.17-1.33,3,.95.34-1.1-.51-.16,1-3.31.51.16.34-1.09-5.14-1.64-.62,2,1.07.34.28-.92,1.64.52-1,3.31-.54-.17Z" transform="translate(-70 -40.61)"/><polygon class="cls-1" points="29.88 105.69 31.14 106.37 31.59 105.52 32.84 106.2 31.36 108.98 30.86 108.71 30.18 109.99 33.19 111.63 33.87 110.36 33.39 110.1 34.87 107.31 35.35 107.57 36.03 106.3 31.02 103.55 29.88 105.69"/><path class="cls-1" d="M103.25,152.46l-3.28-1.8.83-1.54.49.27,1.34-2.51-1-.54-.45.86-1.52-.83L101,144l5.27,2.89-.82,1.54-.47-.26-1.34,2.52.47.26Zm-2.87-1.92,2.74,1.5.53-1-.47-.26,1.62-3.05.48.26.53-1-4.74-2.6-1,1.87,1,.53.46-.85,1.51.83-1.61,3.07-.5-.28Z" transform="translate(-70 -40.61)"/><path class="cls-1" d="M94.19,138.93a3.31,3.31,0,0,0-2.48-.9,3,3,0,0,0-2.11,1.08,3.24,3.24,0,0,0-.57,1,3.59,3.59,0,0,0-.15,1.22,3.32,3.32,0,0,0,1.29,2.36,3.8,3.8,0,0,0,.57.42,3.06,3.06,0,0,0,.57.29,2.61,2.61,0,0,0,.61.16,2.86,2.86,0,0,0,1.61-.17,3,3,0,0,0,1.22-.87,3,3,0,0,0,.73-2.34A3.49,3.49,0,0,0,94.19,138.93Zm-.7,1.74a3.15,3.15,0,0,1-.72,1.17,3,3,0,0,1-1,.92.6.6,0,0,1-.66-.12.61.61,0,0,1-.22-.66,3.35,3.35,0,0,1,.73-1.16,3,3,0,0,1,1-.92.62.62,0,0,1,.66.12A.6.6,0,0,1,93.49,140.67Z" transform="translate(-70 -40.61)"/><path class="cls-1" d="M92.44,144.79a4.91,4.91,0,0,1-.55,0,3.45,3.45,0,0,1-.63-.17,4.17,4.17,0,0,1-1.2-.75,3.51,3.51,0,0,1-1.34-2.46,3.64,3.64,0,0,1,.16-1.27,3.22,3.22,0,0,1,2.83-2.22,3.39,3.39,0,0,1,2.59.94h0a3.61,3.61,0,0,1,1.33,2.37,3.05,3.05,0,0,1-.76,2.46,3.36,3.36,0,0,1-1.28.93A3.25,3.25,0,0,1,92.44,144.79ZM92,138.17h-.24a2.92,2.92,0,0,0-2.55,2,3.43,3.43,0,0,0-.14,1.15,3.16,3.16,0,0,0,1.23,2.26,4.36,4.36,0,0,0,.55.41,4.07,4.07,0,0,0,.55.28,2.65,2.65,0,0,0,.57.15,2.88,2.88,0,0,0,1.51-.16,3,3,0,0,0,1.16-.83,2.79,2.79,0,0,0,.7-2.23A3.35,3.35,0,0,0,94.08,139h0A3.22,3.22,0,0,0,92,138.17ZM91.5,143a.85.85,0,0,1-.81-.87h0a.76.76,0,0,1,0-.15,5,5,0,0,1,1.85-2.2.79.79,0,0,1,.82.15.78.78,0,0,1,.26.81,3.34,3.34,0,0,1-.76,1.23,3.14,3.14,0,0,1-1.09,1A1,1,0,0,1,91.5,143Zm1.36-3a.58.58,0,0,0-.19,0A4.84,4.84,0,0,0,91,142a.52.52,0,0,0,.4.62h0a.54.54,0,0,0,.28,0,5,5,0,0,0,1.66-2h0a.49.49,0,0,0-.17-.51A.54.54,0,0,0,92.86,140Z" transform="translate(-70 -40.61)"/><path class="cls-1" d="M158.22,107.05a6.92,6.92,0,0,0,3-2.69,7.55,7.55,0,0,0,1.18-4.14A7.86,7.86,0,0,0,160.52,95a8.72,8.72,0,0,0-4.92-2.84,23.62,23.62,0,0,0-2.36-.37c-.86-.09-1.89-.16-3.1-.21a13.76,13.76,0,0,0-1.57-.07c1.85-1.87,7.75-7.27,14.18-13.16l8.07-7.39c3.59-3.3,6.87-6.34,9.2-8.55,4.2-4,5.29-5.32-.55-.62-2.18,1.76-5.35,4.37-9.69,8l-8.34,7c-4.83,4-10.58,8.93-17.39,14.7-.48.42-.93.78-1.34,1.12h0l0,0-.07,0-.1.09-.25.2,0,0,0,0-.12.1-.14.12-.13.1-.07.06h0l-.38.31,0,0-.23.18L141,94l-.1.09-.27.22-.11.09-.17.14-.21.18-.58.48.34-.28-.44.38h0l0,0h0l-.31.27,0,0-.09.08,0,0h0l-4.68,3.89-1.4,1.16v13h-2.34v7h15.69v-7H144v-5h3.55l6.29,12h10.4v-7H162.2Zm-8-4.56a2.67,2.67,0,0,1-1.57.84,24.66,24.66,0,0,1-3.32.14H144V97.9h1a26.93,26.93,0,0,1,3.48.14,2.72,2.72,0,0,1,1.64.84,2.54,2.54,0,0,1,.65,1.82A2.47,2.47,0,0,1,150.18,102.49Z" transform="translate(-70 -40.61)"/><path class="cls-1" d="M164.43,120.92H153.79l0-.08L147.5,109h-3.31v4.64h2.17v7.32h-16V113.6h2.34V100.69l6.08-5,.08.11-.07-.12h0l.12-.1.13.09L139,95.5l.3-.26.13.09-.09-.12,2.32-1.93.08.06-.06-.07,0,0,0,0,1.18-1c.35-.28.72-.59,1.11-.92,6.6-5.61,12.45-10.57,17.39-14.74,3.09-2.61,5.9-5,8.34-7,4.19-3.5,7.45-6.19,9.7-8,4-3.23,4.1-3.12,4.25-3s.23.27-3.5,3.81c-2.05,2-5,4.68-9.2,8.56-2.42,2.24-5,4.59-7.5,6.88l-.57.53c-5.77,5.29-11.76,10.76-13.91,12.88a2.45,2.45,0,0,1,.54,0,4.89,4.89,0,0,0,.66.05c1.22,0,2.25.12,3.11.2a24,24,0,0,1,2.38.38,8.84,8.84,0,0,1,5,2.89,8,8,0,0,1,2,5.35,7.81,7.81,0,0,1-1.18,4.21,7.18,7.18,0,0,1-3,2.68l3.86,6.47h2.14ZM154,120.61h10.16v-6.7h-2L158,107l.15-.07a7,7,0,0,0,3-2.64,7.5,7.5,0,0,0,1.14-4.07,7.71,7.71,0,0,0-1.88-5.16,8.61,8.61,0,0,0-4.83-2.8,23.39,23.39,0,0,0-2.35-.36c-.85-.09-1.89-.16-3.08-.21a4.37,4.37,0,0,1-.72-.06,6,6,0,0,0-.85,0h-.37l.26-.26c1.9-1.91,8.15-7.63,14.18-13.16l.58-.52,7.5-6.88c4.22-3.89,7.15-6.61,9.2-8.56,1.77-1.68,2.64-2.56,3.07-3-.52.36-1.52,1.12-3.42,2.65-2.24,1.8-5.51,4.48-9.69,8-2.43,2-5.25,4.39-8.34,7C156.6,81,150.75,86,144.15,91.58L143,92.5l-.67.56-.13-.09.09.11-.47.4h0l-2.33,1.93-.13-.09.1.12,0,0-.44.36-.11-.08.09.1-.07-.07.06.07-.06-.06.06.07h0l-5.95,5v13.07h-2.35v6.7h15.38v-6.7h-2.18v-5.26h3.79l.05.08Zm-8.68-17h-1.4V97.76h1.17a27.47,27.47,0,0,1,3.51.14,2.91,2.91,0,0,1,1.72.89,2.71,2.71,0,0,1,.69,1.92,2.64,2.64,0,0,1-.67,1.88,2.86,2.86,0,0,1-1.67.89A23.42,23.42,0,0,1,145.29,103.63Zm-1.1-.31h1.1a24.08,24.08,0,0,0,3.29-.14,2.55,2.55,0,0,0,1.49-.8h0a2.3,2.3,0,0,0,.61-1.68,2.35,2.35,0,0,0-.61-1.7,2.47,2.47,0,0,0-1.55-.8,28.52,28.52,0,0,0-3.46-.15h-.87Z" transform="translate(-70 -40.61)"/><path class="cls-1" d="M139.64,87V83.8h2.26v-7H124.59l-4.34,11.31L116,76.78H98.56v7h2.29V99.06H98.63v7h11.18v-7h-2.28V82.91l8.64,23.16c-6.42,5.59-11.87,10.36-16.48,14.4-2.77,2.44-5.25,4.61-7.42,6.55-4.07,3.59-7.14,6.34-9.37,8.37-7.39,6.73-5.34,5.4.61.72,2.64-2.09,6.07-4.86,9.77-7.86,2.49-2,5.09-4.14,7.67-6.24,8.83-7.22,17.35-14.23,19.53-15.93l1.72-4.59,7-18.79v13Z" transform="translate(-70 -40.61)"/><path class="cls-1" d="M78.16,140.19a.12.12,0,0,1-.11-.07c-.15-.17-.25-.29,4.76-4.85,2.27-2.07,5.42-4.89,9.36-8.38l7.42-6.53c4.7-4.13,10.22-9,16.4-14.33l-8.3-22.28V98.91H110v7.32H98.48V98.91h2.22V84H98.41V76.63h17.67l4.17,11,4.25-11h17.57V84H139.8v3.1L129.06,96V83.54l-8.44,22.63,0,0c-1.56,1.21-6.27,5.06-12.23,9.94l-7.3,6-7.67,6.25c-4.17,3.38-7.37,5.95-9.78,7.86C79.29,139.62,78.41,140.19,78.16,140.19Zm29.22-58.12,9,24.05-.09.07c-6.2,5.41-11.75,10.25-16.47,14.4l-7.42,6.54c-4,3.48-7.09,6.3-9.36,8.37-2.59,2.36-3.78,3.51-4.31,4.06.64-.43,2-1.41,4.7-3.57,2.43-1.91,5.62-4.48,9.79-7.86l7.67-6.25,7.3-6c5.92-4.84,10.6-8.68,12.2-9.92l9-24.12V95.33l10.13-8.43V83.64h2.27v-6.7H124.69l-4.46,11.58-4.36-11.58H98.72v6.7H101V99.21H98.78v6.71h10.88v-6.7h-2.28Z" transform="translate(-70 -40.61)"/><path class="cls-1" d="M89.32,122.83A43.58,43.58,0,0,1,82.6,99.61c0-25.48,22.19-46.21,49.47-46.21a51.17,51.17,0,0,1,34.67,13.27l9.63-8.18-.68-.65a64.27,64.27,0,0,0-87.24,0,57,57,0,0,0-18.3,41.77A56.41,56.41,0,0,0,79.69,131Z" transform="translate(-70 -40.61)"/><path class="cls-1" d="M79.66,131.25l-.1-.14A56.58,56.58,0,0,1,70,99.61,57.24,57.24,0,0,1,88.35,57.72a64.44,64.44,0,0,1,87.46,0l.53.51.27.27-9.86,8.38-.1-.09a50.81,50.81,0,0,0-34.56-13.25c-27.21,0-49.34,20.67-49.34,46.07a43.67,43.67,0,0,0,6.7,23.14l.07.12-.1.08Zm52.41-90.33A63.09,63.09,0,0,0,88.55,58,56.9,56.9,0,0,0,70.3,99.61a56.26,56.26,0,0,0,9.42,31.19l9.41-8a43.84,43.84,0,0,1-6.68-23.19c0-25.57,22.26-46.36,49.62-46.36a51.15,51.15,0,0,1,34.67,13.22l9.4-8,0,0-.52-.49A63.06,63.06,0,0,0,132.07,40.92Z" transform="translate(-70 -40.61)"/></g></g><text class="cls-2" transform="translate(119 107.38) scale(1.12 1)">&gt;&gt;web dev.</text></svg>