<svg id="Layer_1" data-name="Layer 1" xmlns="http://www.w3.org/2000/svg" viewBox="0 0 96.8 33.62"><defs><style>.cls-1,.cls-2{fill:none;stroke:#e3c48e;}.cls-1{stroke-miterlimit:10;stroke-width:0.75px;}.cls-2{stroke-miterlimit:10;stroke-width:0.75px;}.cls-3,.cls-4{fill:#e3c48e;}.cls-4{font-size:24.38px;font-family:MicrosoftUighur, Microsoft Uighur;}.cls-5{fill:#fff;}</style></defs><rect class="cls-1" x="31.58" y="3.01" width="6.8" height="6.8" transform="translate(5.61 35.93) rotate(-45)"/><rect class="cls-1" x="58.68" y="2.99" width="6.8" height="6.8" transform="translate(13.57 55.1) rotate(-45)"/><line class="cls-2" x1="3.1" y1="15.72" x2="30.1" y2="15.72"/><circle class="cls-3" cx="2.5" cy="15.72" r="2.5"/><line class="cls-2" x1="93.8" y1="15.72" x2="66.8" y2="15.72"/><circle class="cls-3" cx="94.3" cy="15.72" r="2.5"/><text x="-0.1" y="9.32"/><text class="cls-4" transform="translate(40.56 21.13)">M</text><rect class="cls-1" x="54.7" y="3.89" width="4.57" height="4.57" transform="translate(12.22 51.43) rotate(-45)"/><rect class="cls-1" x="36.92" y="3.89" width="4.57" height="4.57" transform="translate(7.01 38.86) rotate(-45)"/><polygon class="cls-1" points="70.26 13.73 72.32 15.71 70.26 17.7 68.19 15.71 70.26 13.73"/><polygon class="cls-1" points="28 13.69 30.07 15.68 28 17.66 25.94 15.68 28 13.69"/><ellipse class="cls-5" cx="94.3" cy="15.67" rx="1.27" ry="1.29"/><ellipse class="cls-5" cx="2.5" cy="15.73" rx="1.27" ry="1.29"/></svg>